<svg width="1488" height="2087" viewBox="0 0 1488 2087" fill="none" xmlns="http://www.w3.org/2000/svg">
<path d="M19.5288 1212C41.9288 978.4 175.529 685.333 239.529 568C572.862 560 1245.93 548.8 1271.53 568C1303.53 592 1399.53 964 1455.53 1188C1511.53 1412 1483.53 1604 1455.53 1672C1427.53 1740 1423.53 1788 1271.53 1880C1119.53 1972 1043.53 1996 695.529 2016C347.529 2036 203.529 1912 139.529 1844C75.5288 1776 43.5288 1684 19.5288 1604C-4.47124 1524 -8.47124 1504 19.5288 1212Z" fill="#BB5F4D"/>
<path d="M379.15 1988C391.95 1976.8 431.15 1960.67 449.15 1954V1802H571.15V1954C588.484 1970.67 627.55 2004.4 645.15 2006C667.15 2008 677.15 2032 673.15 2056C669.15 2080 655.15 2070 645.15 2082C635.15 2094 613.15 2082 595.15 2070C580.75 2060.4 573.15 2050 571.15 2046C565.817 2045.33 551.95 2046.4 539.15 2056C523.15 2068 505.15 2082 481.15 2082C457.15 2082 465.15 2070 449.15 2056C436.351 2044.8 454.484 2035.33 465.15 2032C428.35 2032 415.15 2057.33 413.15 2070C401.15 2082 379.15 2070 367.15 2070C355.15 2070 355.15 2048 351.15 2032C347.15 2016 363.15 2002 379.15 1988Z" fill="#5E3128"/>
<path d="M833.15 1974C845.95 1962.8 885.15 1946.67 903.15 1940V1788H1025.15V1940C1042.48 1956.67 1081.55 1990.4 1099.15 1992C1121.15 1994 1131.15 2018 1127.15 2042C1123.15 2066 1109.15 2056 1099.15 2068C1089.15 2080 1067.15 2068 1049.15 2056C1034.75 2046.4 1027.15 2036 1025.15 2032C1019.82 2031.33 1005.95 2032.4 993.15 2042C977.15 2054 959.15 2068 935.15 2068C911.15 2068 919.15 2056 903.15 2042C890.351 2030.8 908.484 2021.33 919.15 2018C882.35 2018 869.15 2043.33 867.15 2056C855.15 2068 833.15 2056 821.15 2056C809.15 2056 809.15 2034 805.15 2018C801.15 2002 817.15 1988 833.15 1974Z" fill="#5E3128"/>
<path d="M259.529 1882C272.329 1853.2 278.195 1790 279.529 1762L364.529 1771C365.195 1814.33 364.929 1911 358.529 1951C352.129 1991 335.862 2019 328.529 2028C325.529 2032 315.129 2043 297.529 2055C275.529 2070 259.529 2055 249.529 2055C241.529 2055 232.862 2049 229.529 2046C218.529 2052 209.529 2051 194.529 2046C182.529 2042 182.862 2035.67 184.529 2033C182.862 2035.33 177.529 2041.2 169.529 2046C159.529 2052 131.529 2040 133.529 2018C135.529 1996 147.529 1990 169.529 1974C191.529 1958 243.529 1918 259.529 1882Z" fill="#5E3128"/>
<path d="M1229.78 1882C1216.98 1853.2 1211.11 1790 1209.78 1762L1124.78 1771C1124.11 1814.33 1124.38 1911 1130.78 1951C1137.18 1991 1153.44 2019 1160.78 2028C1163.78 2032 1174.18 2043 1191.78 2055C1213.78 2070 1229.78 2055 1239.78 2055C1247.78 2055 1256.44 2049 1259.78 2046C1270.78 2052 1279.78 2051 1294.78 2046C1306.78 2042 1306.44 2035.67 1304.78 2033C1306.44 2035.33 1311.78 2041.2 1319.78 2046C1329.78 2052 1357.78 2040 1355.78 2018C1353.78 1996 1341.78 1990 1319.78 1974C1297.78 1958 1245.78 1918 1229.78 1882Z" fill="#5E3128"/>
<g filter="url(#filter0_d_1_112)">
<path d="M140.543 1528.16C103.39 1420.21 91.0053 1316.25 140.543 1104.35C355.206 940.423 1251.01 1000.4 1312.93 1132.34C1374.85 1264.28 1412.01 1476.18 1341.83 1628.11C1285.69 1749.66 1140.93 1865.34 1073.5 1880L1036.35 1792.04L982.682 1852.01L945.529 1760.05L887.735 1852.01C854.71 1807.23 829.941 1740.06 821.685 1712.08C778.752 1782.44 635.919 1844.02 586.381 1880L524.459 1824.03L446.025 1880L355.206 1824.03C296.036 1761.39 170.265 1614.52 140.543 1528.16Z" fill="#BB5F4D"/>
</g>
<g filter="url(#filter1_d_1_112)">
<path d="M365.703 159.222C469.735 51.0445 673.13 24 761.824 24C838.515 24 1015.9 48.4273 1111.93 146.136C1231.97 268.273 1269.99 538.588 1300 652C1345.96 825.68 1264.47 1068 1160 1164C1054.41 1261.03 853.569 1298.18 719.528 1296C585.487 1293.82 418.074 1221.54 299.999 1124C208 1048 143.99 850.852 176 696C208.01 541.148 235.663 294.445 365.703 159.222Z" fill="#BB5F4D"/>
<path d="M278.61 56.1455C284.684 114.211 286.202 220.242 286.202 266C332.601 225.502 422.866 137.878 412.743 111.37C400.089 78.2355 345.676 24.5884 325.43 16.6992C305.183 8.80992 271.017 -16.4357 278.61 56.1455Z" fill="#AE5949"/>
<path d="M1196.45 50.1455C1190.37 108.211 1188.85 214.242 1188.85 260C1142.46 219.502 1052.19 131.878 1062.31 105.37C1074.97 72.2355 1129.38 18.5884 1149.63 10.6992C1169.87 2.80992 1204.04 -22.4357 1196.45 50.1455Z" fill="#AE5949"/>
<path d="M553.538 633.674C450.774 679.828 459.749 822.837 480.114 996.93C500.479 1171.02 613.69 1264.76 709.569 1264.76C895.181 1264.76 919.997 1139.58 968.174 1019.59C1016.35 899.606 1051.32 720.443 945.273 639.131C877.774 587.374 656.301 587.52 553.538 633.674Z" fill="#954434"/>
<path d="M710.285 735.284C710.285 772.091 662.624 820.589 618.249 820.589C573.873 820.589 532.339 772.091 532.339 735.284C532.339 698.477 573.873 687.3 618.249 687.3C662.624 687.3 710.285 698.477 710.285 735.284Z" fill="#5E3128"/>
<path d="M960.52 735.284C960.52 772.091 912.859 820.589 868.484 820.589C824.109 820.589 782.575 772.091 782.575 735.284C782.575 698.477 824.109 687.3 868.484 687.3C912.859 687.3 960.52 698.477 960.52 735.284Z" fill="#5E3128"/>
<path d="M739.479 991.199L726.967 1100.5" stroke="black" stroke-width="14" stroke-linecap="round"/>
<path d="M631.044 1152.48C674.14 1152.48 707.968 1127.6 725.577 1104.49C742.26 1131.15 777.015 1173.8 822.891 1187.13C792.307 1221.79 745.04 1239.12 700.554 1227.12C643.949 1211.86 631.044 1159.14 631.044 1152.48Z" fill="black" stroke="black" stroke-width="14" stroke-linecap="round"/>
<circle cx="500.028" cy="378.5" r="192" fill="#D9D9D9" stroke="black" stroke-width="15"/>
<path d="M571.012 241.395C602.082 257.623 626.697 283.953 640.8 316.045C654.903 348.136 657.652 384.075 648.594 417.938C639.536 451.801 619.211 481.568 590.97 502.333C562.729 523.098 528.256 533.622 493.232 532.171C458.208 530.72 424.724 517.38 398.298 494.349C371.871 471.319 354.079 439.973 347.853 405.477C341.628 370.98 347.34 335.392 364.05 304.577C380.759 273.762 407.468 249.56 439.775 235.957L505.528 329L571.012 241.395Z" fill="black"/>
<circle cx="975.028" cy="386.5" r="192" fill="#D9D9D9" stroke="black" stroke-width="15"/>
<path d="M1046.01 249.395C1077.08 265.623 1101.7 291.953 1115.8 324.045C1129.9 356.136 1132.65 392.075 1123.59 425.938C1114.54 459.801 1094.21 489.568 1065.97 510.333C1037.73 531.098 1003.26 541.622 968.232 540.171C933.208 538.72 899.724 525.38 873.298 502.349C846.871 479.319 829.079 447.973 822.853 413.477C816.628 378.98 822.34 343.392 839.05 312.577C855.759 281.762 882.468 257.56 914.775 243.957L980.528 337L1046.01 249.395Z" fill="black"/>
</g>
<defs>
<filter id="filter0_d_1_112" x="102.87" y="1005" width="1282" height="931" filterUnits="userSpaceOnUse" color-interpolation-filters="sRGB">
<feFlood flood-opacity="0" result="BackgroundImageFix"/>
<feColorMatrix in="SourceAlpha" type="matrix" values="0 0 0 0 0 0 0 0 0 0 0 0 0 0 0 0 0 0 127 0" result="hardAlpha"/>
<feOffset dy="51"/>
<feGaussianBlur stdDeviation="2.5"/>
<feComposite in2="hardAlpha" operator="out"/>
<feColorMatrix type="matrix" values="0 0 0 0 0.489328 0 0 0 0 0.198035 0 0 0 0 0.141043 0 0 0 0.25 0"/>
<feBlend mode="normal" in2="BackgroundImageFix" result="effect1_dropShadow_1_112"/>
<feBlend mode="normal" in="SourceGraphic" in2="effect1_dropShadow_1_112" result="shape"/>
</filter>
<filter id="filter1_d_1_112" x="167.65" y="0" width="1145.47" height="1360.09" filterUnits="userSpaceOnUse" color-interpolation-filters="sRGB">
<feFlood flood-opacity="0" result="BackgroundImageFix"/>
<feColorMatrix in="SourceAlpha" type="matrix" values="0 0 0 0 0 0 0 0 0 0 0 0 0 0 0 0 0 0 127 0" result="hardAlpha"/>
<feOffset dy="64"/>
<feComposite in2="hardAlpha" operator="out"/>
<feColorMatrix type="matrix" values="0 0 0 0 0.370466 0 0 0 0 0.1923 0 0 0 0 0.157441 0 0 0 0.25 0"/>
<feBlend mode="normal" in2="BackgroundImageFix" result="effect1_dropShadow_1_112"/>
<feBlend mode="normal" in="SourceGraphic" in2="effect1_dropShadow_1_112" result="shape"/>
</filter>
</defs>
</svg>
