<?xml version="1.0" encoding="UTF-8"?>
<svg id="Layer_1" xmlns="http://www.w3.org/2000/svg" version="1.1" viewBox="0 0 291.6 434.76">
  <!-- Generator: Adobe Illustrator 30.6.0, SVG Export Plug-In . SVG Version: 2.1.4 Build 109)  -->
  <defs>
    <style>
      .st0 {
        fill: #c0a8b7;
      }

      .st1 {
        fill: #edae84;
      }

      .st2 {
        fill: #ff9d47;
      }

      .st3 {
        fill: #ffb45a;
      }

      .st4 {
        fill: #4a0630;
      }

      .st5 {
        fill: #9cba4e;
      }

      .st6 {
        fill: #f3a370;
      }

      .st7 {
        fill: #cce070;
      }

      .st8 {
        fill: #d77e56;
      }
    </style>
  </defs>
  <path class="st0" d="M17.8,407.76c0-3.73,3.58-7.28,10.06-10.51,6.48-3.23,15.85-6.14,27.43-8.58,11.58-2.44,25.37-4.42,40.69-5.79,15.31-1.37,32.15-2.12,49.82-2.12s34.51.76,49.82,2.12c15.31,1.37,29.1,3.34,40.69,5.79s20.95,5.35,27.43,8.58c6.48,3.23,10.06,6.78,10.06,10.51s-3.58,7.28-10.06,10.51c-6.48,3.23-15.85,6.14-27.43,8.58-11.58,2.44-25.37,4.42-40.69,5.79-15.31,1.37-32.15,2.12-49.82,2.12s-34.51-.76-49.82-2.12c-15.31-1.37-29.1-3.34-40.69-5.79-11.58-2.44-20.95-5.35-27.43-8.58-6.48-3.23-10.06-6.78-10.06-10.51Z"/>
  <g>
    <path class="st6" d="M252.57,233.96c1.82,4.68,4.47,10.73,7.5,17.56,3.04,6.83,6.46,14.45,9.83,22.25,3.37,7.8,6.68,15.79,9.5,23.37,2.82,7.58,5.14,14.76,6.53,20.94,2.49,11.09,3.5,22.05,3.08,32.24s-2.25,19.63-5.45,27.68c-3.2,8.05-7.77,14.71-13.64,19.36-5.87,4.65-13.05,7.29-21.48,7.29H43.15c-8.43,0-15.6-2.64-21.48-7.29s-10.44-11.31-13.64-19.36c-3.2-8.05-5.04-17.48-5.45-27.68s.59-21.15,3.08-32.24c1.39-6.18,3.71-13.36,6.53-20.94,2.82-7.58,6.13-15.57,9.5-23.37,3.37-7.8,6.79-15.41,9.83-22.25s5.68-12.88,7.5-17.56h213.54Z"/>
    <g>
      <path class="st6" d="M132.38,333.15c-.17,3.18-.28,7.2-.31,11.79-.03,4.6.04,9.77.23,15.28s.51,11.33,1,17.24c.49,5.9,1.14,11.88,2.01,17.67,1.07.38,2.08.96,2.97,1.68.89.72,1.67,1.59,2.29,2.55.62.96,1.09,2.02,1.36,3.11s.34,2.23.17,3.36c-.27,1.76-.83,3.09-1.82,4.1-.99,1-2.39,1.68-4.34,2.13-1.94.46-4.43.69-7.57.81-3.14.12-6.95.13-11.53.13-7.76,0-14.79-3.27-21.09-8.52-6.3-5.25-11.88-12.48-16.74-20.42-4.86-7.93-9-16.57-12.42-24.62-3.43-8.05-6.14-15.52-8.15-21.12l18.48-1.3,18.48-1.3,18.48-1.3,18.48-1.3Z"/>
      <path class="st6" d="M159.22,333.15c.17,3.18.28,7.2.31,11.79.03,4.6-.04,9.77-.23,15.28s-.51,11.33-1,17.24c-.49,5.9-1.14,11.88-2.01,17.67-1.07.38-2.08.96-2.97,1.68-.89.72-1.67,1.59-2.29,2.55-.62.96-1.09,2.02-1.36,3.11s-.34,2.23-.17,3.36c.27,1.76.83,3.09,1.82,4.1.99,1,2.39,1.68,4.34,2.13,1.94.46,4.43.69,7.57.81s6.95.13,11.53.13c7.76,0,14.79-3.27,21.09-8.52,6.3-5.25,11.88-12.48,16.74-20.42,4.86-7.93,9-16.57,12.42-24.62,3.43-8.05,6.14-15.52,8.15-21.12l-18.48-1.3-18.48-1.3-18.48-1.3-18.48-1.3Z"/>
      <path class="st8" d="M94.68,401.7c2.77-3.48,6.19-6.25,9.86-8.36,3.67-2.12,7.59-3.58,11.35-4.44,3.77-.86,7.39-1.12,10.46-.83,3.07.29,5.6,1.14,7.18,2.48.65.55,1.45,1.4,2.29,2.42s1.71,2.2,2.52,3.42c.8,1.22,1.53,2.48,2.07,3.65.54,1.17.89,2.24.95,3.09.06.85-.03,1.74-.25,2.61-.22.86-.56,1.7-1.02,2.44-.46.74-1.03,1.39-1.7,1.88s-1.43.82-2.28.93c-5.22.65-9.59,1.23-13.42,1.51-3.83.29-7.12.28-10.17-.21s-5.86-1.49-8.74-3.19c-2.88-1.7-5.82-4.09-9.12-7.4Z"/>
      <path class="st8" d="M197.91,401.7c-2.77-3.48-6.19-6.25-9.86-8.36-3.67-2.12-7.59-3.58-11.35-4.44-3.77-.86-7.39-1.12-10.46-.83-3.07.29-5.6,1.14-7.18,2.48-.65.55-1.45,1.4-2.29,2.42s-1.71,2.2-2.52,3.42c-.8,1.22-1.53,2.48-2.07,3.65s-.89,2.24-.95,3.09c-.06.85.03,1.74.25,2.61.22.86.56,1.7,1.02,2.44.46.74,1.03,1.39,1.7,1.88.67.49,1.43.82,2.28.93,5.22.65,9.59,1.23,13.42,1.51,3.83.29,7.12.28,10.17-.21s5.86-1.49,8.74-3.19c2.88-1.7,5.82-4.09,9.12-7.4Z"/>
    </g>
    <g>
      <path class="st2" d="M183,50.37c14.07,3.75,27.15,9.62,38.84,17.14s22,16.68,30.55,27.02c8.55,10.34,15.34,21.87,19.99,34.1,4.65,12.24,7.17,25.19,7.17,38.39,0,15.88-3.74,30.6-10.49,43.75-6.76,13.15-16.53,24.73-28.61,34.32-12.08,9.59-26.46,17.2-42.43,22.41-15.97,5.21-33.53,8.02-51.96,8.02s-35.99-2.81-51.96-8.02c-15.97-5.21-30.36-12.82-42.43-22.41-12.08-9.59-21.85-21.17-28.61-34.32-6.76-13.15-10.49-27.87-10.49-43.75,0-14.26,3.01-28.24,8.52-41.35,5.51-13.11,13.51-25.34,23.49-36.11,9.98-10.77,21.93-20.07,35.34-27.32,13.41-7.24,28.28-12.43,44.09-14.96l14.75.77,14.75.77,14.75.77,14.75.77Z"/>
      <path class="st3" d="M179.82,50.24c12.86,3.59,24.81,9.19,35.49,16.37,10.68,7.18,20.1,15.93,27.92,25.8,7.81,9.88,14.02,20.88,18.27,32.57s6.55,24.06,6.55,36.67c0,15.17-3.41,29.22-9.59,41.78-6.17,12.56-15.11,23.62-26.15,32.78-11.04,9.16-24.18,16.43-38.78,21.41-14.6,4.98-30.64,7.66-47.49,7.66s-32.89-2.69-47.49-7.66c-14.6-4.98-27.74-12.24-38.78-21.41-11.04-9.16-19.97-20.22-26.15-32.78-6.17-12.56-9.59-26.62-9.59-41.78,0-13.62,2.75-26.97,7.79-39.49,5.03-12.52,12.35-24.21,21.46-34.49,9.12-10.29,20.04-19.17,32.3-26.09,12.26-6.92,25.84-11.87,40.29-14.29l13.48.74,13.48.74,13.48.74,13.48.74Z"/>
      <path class="st6" d="M146.05,260.01c12.01,0,24.01-2.28,35.27-6.26,11.27-3.98,21.81-9.68,30.92-16.51s16.79-14.81,22.32-23.35c5.54-8.55,8.93-17.66,9.48-26.79.26-4.26.04-9.22-.68-14.6-.73-5.38-1.96-11.17-3.74-17.11-1.78-5.94-4.11-12.01-7.03-17.94-2.92-5.93-6.42-11.72-10.55-17.09-4.63-6.03-10.2-10.89-16.3-14.78-6.1-3.9-12.75-6.82-19.56-8.98-6.81-2.16-13.77-3.54-20.51-4.35-6.74-.81-13.25-1.04-19.16-.89-.06,0-.13,0-.21,0-.08,0-.17,0-.26,0-.09,0-.18,0-.26,0s-.15,0-.21,0c-5.9-.18-12.42.04-19.15.85-6.74.8-13.7,2.19-20.51,4.35-6.81,2.16-13.45,5.1-19.56,9-6.1,3.9-11.67,8.77-16.3,14.8-4.13,5.37-7.63,11.16-10.55,17.09-2.92,5.93-5.25,12.01-7.03,17.94-1.78,5.94-3.02,11.73-3.74,17.11-.73,5.38-.94,10.34-.68,14.6.55,9.12,3.94,18.24,9.48,26.79,5.54,8.55,13.21,16.52,22.32,23.35,9.11,6.83,19.65,12.52,30.92,16.51s23.26,6.26,35.27,6.26Z"/>
      <path class="st8" d="M146.05,233.96c5.45,0,10.89-1.17,16-3.21,5.11-2.04,9.89-4.96,14.03-8.46,4.13-3.5,7.61-7.59,10.13-11.97,2.51-4.38,4.05-9.06,4.3-13.73.12-2.18.02-4.73-.31-7.48-.33-2.76-.89-5.73-1.7-8.77-.81-3.04-1.87-6.16-3.19-9.2-1.32-3.04-2.91-6.01-4.78-8.76-2.1-3.09-4.63-5.58-7.39-7.58-2.77-2-5.78-3.5-8.87-4.6-3.09-1.11-6.25-1.82-9.3-2.23-3.06-.41-6.01-.53-8.69-.46-.03,0-.06,0-.1,0-.04,0-.08,0-.12,0-.04,0-.08,0-.12,0-.04,0-.07,0-.1,0-2.68-.09-5.63.02-8.69.43-3.06.41-6.22,1.12-9.3,2.23-3.09,1.11-6.1,2.61-8.87,4.62-2.77,2-5.29,4.5-7.39,7.59-1.87,2.75-3.46,5.72-4.78,8.76s-2.38,6.16-3.19,9.2-1.37,6.02-1.7,8.77c-.33,2.76-.43,5.3-.31,7.48.25,4.68,1.79,9.35,4.3,13.73s5.99,8.47,10.13,11.97,8.91,6.42,14.03,8.46c5.11,2.04,10.55,3.21,16,3.21Z"/>
      <g>
        <path class="st8" d="M186.69,146.98c1.12-4.02,3.61-6.77,6.79-8.48,3.18-1.71,7.07-2.38,10.97-2.23s7.83,1.12,11.1,2.68c3.27,1.56,5.89,3.72,7.18,6.25,2.91,5.71,1.59,10.57-1.9,14.18-3.49,3.61-9.15,5.96-14.91,6.65-5.76.69-11.62-.28-15.51-3.32-3.89-3.04-5.82-8.15-3.71-15.74Z"/>
        <path class="st8" d="M105.16,146.98c-1.12-4.02-3.61-6.77-6.79-8.48-3.18-1.71-7.07-2.38-10.97-2.23s-7.83,1.12-11.1,2.68c-3.27,1.56-5.89,3.72-7.18,6.25-2.91,5.71-1.59,10.57,1.9,14.18,3.49,3.61,9.15,5.96,14.91,6.65,5.76.69,11.62-.28,15.51-3.32,3.89-3.04,5.82-8.15,3.71-15.74Z"/>
      </g>
      <g>
        <path class="st1" d="M79.89,144.84c-.19-.69-.62-1.16-1.16-1.45-.54-.29-1.21-.41-1.88-.38-.67.03-1.34.19-1.9.46-.56.27-1.01.64-1.23,1.07-.5.98-.27,1.81.33,2.43.6.62,1.57,1.02,2.55,1.14.99.12,1.99-.05,2.65-.57.67-.52,1-1.4.63-2.69Z"/>
        <path class="st1" d="M211.96,144.84c.19-.69.62-1.16,1.16-1.45.54-.29,1.21-.41,1.88-.38.67.03,1.34.19,1.9.46.56.27,1.01.64,1.23,1.07.5.98.27,1.81-.33,2.43-.6.62-1.57,1.02-2.55,1.14-.99.12-1.99-.05-2.65-.57-.67-.52-1-1.4-.63-2.69Z"/>
      </g>
    </g>
    <g>
      <path class="st5" d="M137.04,56.56c1.91-10.85,5.5-19.48,10.33-26.22,4.83-6.75,10.9-11.62,17.77-14.95,6.87-3.34,14.53-5.14,22.56-5.76,8.03-.62,16.41-.05,24.72,1.36-2.54,11.74-7.5,20.74-13.76,27.56-6.26,6.82-13.84,11.46-21.6,14.5s-15.72,4.47-22.76,4.86-13.16-.25-17.25-1.36Z"/>
      <path class="st7" d="M142.48,43.09c2.43-8.29,6.22-14.54,10.89-19.26,4.67-4.72,10.22-7.89,16.19-10.03,5.97-2.14,12.36-3.25,18.7-3.82,6.34-.57,12.63-.6,18.41-.6,2.6,0,3.39,1.31,2.84,3.41-.55,2.1-2.42,4.98-5.14,8.14-2.72,3.16-6.29,6.58-10.22,9.76-3.93,3.18-8.22,6.11-12.38,8.27-4.31,2.24-9.03,3.99-13.66,5.26s-9.16,2.06-13.11,2.39c-3.94.33-7.29.19-9.55-.4-2.25-.59-3.41-1.63-2.98-3.11Z"/>
      <path class="st5" d="M137.04,52.56c-5.82-1.63-10.9-3.85-15.19-6.7-4.28-2.85-7.77-6.33-10.39-10.46-2.62-4.13-4.38-8.92-5.22-14.39s-.75-11.63.32-18.5c5.24,2.9,10.22,5.36,14.71,7.73,4.49,2.36,8.5,4.63,11.81,7.13,3.31,2.5,5.93,5.24,7.64,8.54,1.71,3.31,2.5,7.18,2.18,11.97l-1.47,3.67-1.47,3.67-1.47,3.67-1.47,3.67Z"/>
      <path class="st7" d="M106.56,2.5c5.24,2.9,10.38,5.67,15,8.29,4.62,2.62,8.73,5.09,11.92,7.41s5.46,4.48,6.41,6.47c.95,1.99.57,3.81-1.54,5.46-2.5,1.95-6.01,2.91-9.79,2.83-3.78-.08-7.85-1.2-11.47-3.42-3.62-2.22-6.79-5.55-8.78-10.03-2-4.49-2.82-10.13-1.75-17Z"/>
    </g>
  </g>
  <g>
    <g>
      <path class="st4" d="M150.3,60.55c-1.4,0-2.75-.04-4.04-.11-1.29-.07-2.53-.18-3.7-.32-1.17-.14-2.28-.31-3.31-.5-1.03-.19-1.99-.41-2.86-.65-.31-.08-.6-.22-.84-.41-.25-.18-.45-.41-.62-.66-.16-.26-.28-.54-.34-.84-.06-.3-.07-.62-.01-.93.92-5.2,2.23-10.01,3.92-14.41s3.77-8.4,6.23-11.99c2.46-3.59,5.3-6.77,8.53-9.54,3.22-2.77,6.82-5.12,10.79-7.05,3.22-1.56,6.68-2.83,10.37-3.81,3.69-.98,7.6-1.66,11.7-2.05,4.1-.39,8.4-.48,12.86-.27,4.46.21,9.09.71,13.85,1.52.17.03.33.07.49.13.16.06.31.14.45.23s.27.2.39.31c.12.12.23.25.32.39.1.14.18.29.24.45.06.16.11.32.14.48.03.16.05.33.05.5,0,.17-.02.34-.06.5-.93,4.31-2.2,8.36-3.78,12.15s-3.51,7.31-5.74,10.55c-2.24,3.25-4.8,6.22-7.68,8.92-2.88,2.7-6.08,5.12-9.59,7.26-3.13,1.91-6.36,3.49-9.62,4.8-3.26,1.31-6.54,2.34-9.78,3.13-3.24.79-6.44,1.35-9.52,1.7-3.08.36-6.05.51-8.83.51ZM139.95,54.66c2.53.48,5.64.81,9.13.86s7.35-.15,11.41-.73c4.05-.58,8.29-1.52,12.52-2.93,4.23-1.41,8.45-3.28,12.46-5.73,3.03-1.85,5.81-3.93,8.33-6.24,2.52-2.31,4.78-4.85,6.77-7.61s3.73-5.75,5.2-8.96c1.47-3.21,2.67-6.64,3.61-10.29-5.84-.86-12.55-1.38-19.46-1.02-6.91.37-14.02,1.63-20.68,4.34-6.66,2.72-12.87,6.89-17.97,13.09-5.1,6.19-9.09,14.41-11.31,25.21Z"/>
      <path class="st4" d="M137.04,55.06c-.06,0-.11,0-.17,0-.06,0-.11,0-.17-.02-.06,0-.11-.02-.17-.03-.06-.01-.11-.03-.17-.04-6.35-1.78-11.81-4.25-16.36-7.39-4.55-3.14-8.19-6.95-10.91-11.4-2.71-4.45-4.5-9.53-5.34-15.21-.84-5.69-.73-11.98.34-18.85.03-.2.09-.4.16-.58.08-.18.18-.36.29-.52.12-.16.25-.31.41-.43.15-.13.32-.24.51-.33.18-.09.37-.16.57-.2s.39-.06.59-.06c.2,0,.4.03.59.09.19.05.38.13.56.23.87.48,1.72.94,2.57,1.4.85.46,1.69.9,2.52,1.34.83.44,1.66.87,2.47,1.29.82.42,1.63.84,2.43,1.25,4.03,2.08,7.84,4.04,11.28,6.1,3.44,2.06,6.5,4.2,9.03,6.64,2.52,2.44,4.5,5.17,5.78,8.38,1.28,3.22,1.85,6.93,1.55,11.32-.02.34-.12.67-.26.96s-.35.55-.59.76c-.24.21-.52.37-.83.48-.31.11-.64.15-.98.13-.34-.02-.67-.12-.96-.26-.29-.15-.55-.35-.76-.59-.21-.24-.37-.52-.48-.83-.11-.31-.15-.64-.13-.98.24-3.58-.22-6.59-1.29-9.23s-2.76-4.89-4.96-6.95c-2.2-2.06-4.92-3.93-8.07-5.78-3.15-1.85-6.72-3.69-10.62-5.7-.56-.29-1.13-.58-1.69-.87-.57-.29-1.14-.59-1.71-.89-.58-.3-1.15-.6-1.74-.91-.58-.31-1.17-.62-1.76-.93-.62,5.73-.47,10.94.44,15.64.91,4.7,2.59,8.87,5.02,12.52,2.43,3.65,5.63,6.78,9.57,9.37,3.95,2.59,8.65,4.66,14.11,6.18.33.09.63.25.88.45.25.2.46.45.62.73s.26.59.3.91c.04.32.02.66-.07.99-.08.28-.2.53-.35.75-.15.22-.34.42-.56.58-.21.16-.45.28-.7.37s-.52.13-.79.13Z"/>
    </g>
    <g>
      <path class="st4" d="M146.05,278.03c-9.18,0-18.2-.69-26.95-2.03-8.75-1.34-17.24-3.34-25.37-5.97-8.13-2.62-15.89-5.87-23.2-9.71-7.31-3.84-14.15-8.27-20.44-13.27-6.46-5.13-12.19-10.75-17.15-16.78-4.96-6.03-9.16-12.48-12.56-19.26-3.39-6.78-5.98-13.89-7.71-21.24-1.74-7.36-2.63-14.96-2.63-22.74,0-7.08.73-14.14,2.14-21.11,1.42-6.97,3.53-13.85,6.29-20.55,2.77-6.7,6.19-13.24,10.24-19.51,4.05-6.28,8.73-12.3,13.99-17.98,5.28-5.7,11.03-10.93,17.18-15.64,6.15-4.72,12.69-8.92,19.53-12.56s14.01-6.74,21.4-9.22c7.39-2.49,15-4.38,22.76-5.62.34-.05.68-.04.99.04.32.08.61.22.87.4.26.19.48.42.65.7.17.28.29.59.35.93.05.34.04.68-.04.99s-.22.61-.4.87c-.19.26-.42.48-.7.65s-.59.29-.93.35c-15.33,2.45-29.82,7.51-42.95,14.6-13.12,7.08-24.87,16.19-34.71,26.74s-17.75,22.54-23.21,35.39c-5.46,12.85-8.46,26.56-8.46,40.54,0,15.11,3.52,29.29,9.97,42.06,6.45,12.77,15.82,24.13,27.53,33.61,11.71,9.47,25.75,17.06,41.53,22.28,15.78,5.22,33.3,8.07,51.98,8.07s36.19-2.85,51.98-8.07c15.78-5.22,29.82-12.8,41.53-22.28,11.71-9.47,21.08-20.84,27.53-33.61,6.45-12.77,9.97-26.95,9.97-42.06,0-12.89-2.49-25.56-7.08-37.54-4.59-11.98-11.28-23.28-19.69-33.42-8.41-10.14-18.53-19.13-29.98-26.5-11.45-7.37-24.23-13.11-37.94-16.77-.33-.09-.63-.24-.89-.44s-.47-.45-.63-.72c-.16-.28-.27-.58-.31-.91-.05-.32-.03-.66.06-.99.09-.33.24-.63.44-.89.2-.26.45-.47.72-.63.28-.16.58-.27.91-.31s.66-.03.99.06c6.93,1.85,13.69,4.23,20.22,7.11,6.53,2.87,12.82,6.24,18.81,10.05s11.66,8.06,16.96,12.72c5.3,4.65,10.22,9.7,14.68,15.11,4.47,5.41,8.44,11.11,11.88,17.03,3.44,5.92,6.35,12.05,8.7,18.33s4.14,12.69,5.34,19.17c1.2,6.48,1.82,13.03,1.82,19.56,0,7.77-.89,15.38-2.63,22.74s-4.32,14.47-7.71,21.24-7.59,13.23-12.56,19.26c-4.96,6.03-10.7,11.66-17.15,16.78-6.29,4.99-13.13,9.43-20.44,13.27-7.31,3.84-15.07,7.09-23.2,9.71s-16.62,4.62-25.37,5.97c-8.75,1.34-17.77,2.03-26.95,2.03Z"/>
      <path class="st4" d="M146.05,262.51c-5.83,0-11.74-.53-17.64-1.56-5.9-1.03-11.78-2.55-17.56-4.53-5.77-1.98-11.43-4.43-16.88-7.31-5.45-2.87-10.69-6.18-15.62-9.87-4.94-3.7-9.39-7.66-13.3-11.81-3.92-4.14-7.3-8.47-10.09-12.9-2.8-4.43-5.01-8.97-6.6-13.54-1.58-4.57-2.54-9.17-2.81-13.73-.26-4.37-.05-9.45.69-14.96.74-5.51,1.99-11.44,3.81-17.52,1.82-6.08,4.2-12.3,7.19-18.38,2.99-6.08,6.58-12.02,10.83-17.54,5.48-7.12,12.06-12.58,19.11-16.77,7.05-4.18,14.56-7.08,21.88-9.08,7.33-2,14.47-3.09,20.78-3.65,6.31-.56,11.8-.6,15.8-.48.05,0,.11,0,.18,0,.07,0,.14,0,.22,0s.15,0,.22,0c.07,0,.13,0,.18,0,4.02-.1,9.52-.05,15.85.53,6.33.58,13.48,1.69,20.81,3.69,7.33,2.01,14.84,4.91,21.87,9.07,7.03,4.17,13.6,9.6,19.03,16.67,4.24,5.52,7.84,11.46,10.83,17.54,2.99,6.08,5.37,12.31,7.19,18.38,1.82,6.08,3.08,12.02,3.81,17.52.74,5.51.95,10.59.69,14.96-.27,4.56-1.23,9.16-2.81,13.73-1.58,4.57-3.8,9.11-6.6,13.54-2.8,4.43-6.18,8.76-10.09,12.9-3.92,4.14-8.37,8.11-13.3,11.81-4.93,3.7-10.17,7-15.62,9.87-5.45,2.87-11.11,5.32-16.88,7.31-5.77,1.98-11.66,3.51-17.56,4.53-5.9,1.03-11.81,1.56-17.64,1.56ZM141.82,93.81c-4.25,0-9.54.21-15.4.91-5.85.7-12.26,1.9-18.74,3.86s-13.01,4.7-19.11,8.49c-6.11,3.79-11.78,8.63-16.53,14.81-4.05,5.26-7.48,10.92-10.33,16.71-2.85,5.79-5.13,11.71-6.86,17.49-1.74,5.78-2.94,11.42-3.64,16.65-.7,5.23-.91,10.06-.66,14.2.54,8.9,3.89,17.76,9.35,26.05,5.46,8.28,13.01,15.99,21.93,22.58,8.93,6.59,19.22,12.07,30.17,15.91s22.54,6.02,34.05,6.02,23.11-2.18,34.05-6.02,21.24-9.31,30.17-15.91c8.93-6.59,16.48-14.3,21.93-22.58,5.46-8.28,8.81-17.14,9.35-26.05.25-4.15.04-8.97-.66-14.2-.7-5.23-1.9-10.87-3.64-16.65-1.74-5.78-4.01-11.7-6.86-17.49-2.85-5.79-6.28-11.45-10.33-16.71-5.09-6.62-11.27-11.7-17.91-15.6-6.65-3.9-13.76-6.61-20.71-8.49-6.95-1.87-13.75-2.91-19.77-3.45-6.02-.54-11.25-.59-15.08-.49-.07,0-.15,0-.24,0s-.19,0-.29,0c-.1,0-.2,0-.29,0-.09,0-.18,0-.24,0-.28,0-.56-.02-.86-.02-.29,0-.59-.01-.9-.02s-.62,0-.94-.01c-.32,0-.65,0-.98,0Z"/>
      <g>
        <path class="st4" d="M186.58,147.36c-.14,0-.27-.01-.41-.03-.13-.02-.27-.06-.4-.1-.13-.04-.26-.1-.38-.17-.12-.07-.24-.15-.36-.24-.27-.21-.48-.47-.64-.76-.16-.28-.25-.6-.29-.91-.04-.32-.01-.64.07-.96.09-.31.24-.61.45-.88,1.36-1.72,2.88-3.23,4.54-4.52,1.66-1.3,3.48-2.38,5.44-3.24s4.06-1.52,6.31-1.95c2.25-.43,4.64-.65,7.16-.65.35,0,.67.07.97.2s.57.31.79.54.41.5.54.79.2.63.2.97-.07.67-.2.97-.31.57-.54.79-.5.41-.79.54-.63.2-.97.2c-2.13,0-4.13.18-6.01.53-1.88.36-3.64.89-5.27,1.6s-3.14,1.59-4.51,2.65c-1.38,1.06-2.62,2.29-3.74,3.7-.12.16-.26.29-.41.41-.15.12-.31.22-.48.3-.17.08-.34.14-.52.18-.18.04-.36.06-.55.06Z"/>
        <path class="st4" d="M105.51,147.36c-.18,0-.37-.02-.55-.06-.18-.04-.36-.1-.52-.18-.17-.08-.33-.18-.48-.3-.15-.12-.29-.26-.41-.41-1.11-1.41-2.36-2.64-3.74-3.7-1.38-1.06-2.88-1.94-4.51-2.65-1.63-.71-3.39-1.24-5.27-1.6-1.88-.36-3.89-.53-6.01-.53-.35,0-.67-.07-.97-.2-.3-.13-.57-.31-.79-.54s-.41-.5-.54-.79-.2-.63-.2-.97.07-.67.2-.97.31-.57.54-.79.5-.41.79-.54c.3-.13.63-.2.97-.2,2.53,0,4.92.22,7.16.65,2.25.43,4.35,1.09,6.31,1.95,1.96.87,3.77,1.95,5.44,3.24,1.66,1.3,3.18,2.8,4.54,4.52.21.27.36.57.45.88s.11.64.07.96c-.04.32-.13.63-.29.91-.16.28-.37.54-.64.76-.11.09-.24.17-.36.24-.12.07-.25.12-.38.17-.13.04-.26.08-.4.1-.13.02-.27.03-.41.03Z"/>
      </g>
    </g>
    <g>
      <path class="st4" d="M155.2,174.04c-.17,0-.35-.02-.52-.05-.17-.04-.34-.09-.5-.16-.16-.07-.32-.16-.46-.27s-.28-.23-.41-.37c-.23-.26-.39-.55-.49-.86-.1-.31-.14-.63-.12-.95.02-.32.1-.63.25-.93s.34-.56.6-.79c1.1-.96,2.45-1.93,3.96-2.86,1.51-.92,3.2-1.8,4.97-2.56,1.77-.76,3.64-1.42,5.53-1.9,1.88-.48,3.78-.79,5.63-.86.34-.02.67.04.97.15.3.11.58.29.82.5.24.22.43.48.57.78.14.29.22.62.24.97.01.34-.04.68-.16.98-.11.3-.29.58-.5.82-.22.24-.48.43-.77.57-.29.14-.62.22-.96.24-1.54.06-3.14.33-4.73.74-1.6.41-3.19.98-4.7,1.63-1.51.65-2.95,1.4-4.23,2.18-1.28.78-2.42,1.6-3.33,2.39-.12.1-.24.19-.37.27-.13.08-.27.14-.41.19-.14.05-.28.09-.43.11-.14.03-.29.04-.44.04Z"/>
      <path class="st4" d="M136.89,174.04c-.15,0-.29-.01-.44-.04-.14-.03-.29-.06-.43-.11s-.27-.12-.41-.19c-.13-.08-.26-.17-.37-.27-.91-.8-2.05-1.61-3.33-2.39-1.28-.78-2.72-1.53-4.23-2.18-1.51-.65-3.1-1.22-4.7-1.63-1.6-.41-3.2-.68-4.73-.74-.34-.01-.67-.1-.96-.24-.29-.14-.56-.33-.77-.57-.22-.23-.39-.51-.5-.82s-.17-.64-.16-.98.1-.67.24-.97.33-.56.57-.78.51-.39.82-.5c.3-.11.63-.17.98-.15,1.84.07,3.74.38,5.63.86,1.88.48,3.75,1.13,5.53,1.9,1.77.76,3.46,1.64,4.97,2.56,1.51.92,2.86,1.9,3.96,2.86.26.23.46.5.6.79.14.29.23.61.25.93.02.32-.02.64-.12.95-.1.31-.26.6-.49.86-.12.14-.26.27-.41.37-.15.11-.3.2-.46.27-.16.07-.33.13-.5.16-.17.04-.34.05-.52.05Z"/>
    </g>
    <g>
      <path class="st4" d="M122.84,217.05c-.24,0-.48-.03-.71-.1-.23-.07-.45-.17-.65-.29s-.38-.29-.54-.47-.29-.39-.4-.63c-.14-.32-.21-.65-.21-.97,0-.32.05-.65.17-.94.12-.3.29-.57.51-.81.22-.24.5-.43.81-.57l6.05-2.66,6.05-2.66,6.05-2.66,6.05-2.66c.16-.07.33-.12.5-.16.17-.04.34-.05.51-.05.17,0,.34.02.51.05.17.04.34.09.5.16l6,2.66,6,2.66,6,2.66,6,2.66c.32.14.59.34.81.57.22.24.39.51.51.81s.17.62.17.94-.08.65-.21.97c-.14.32-.34.59-.57.81-.24.22-.51.39-.81.51-.3.12-.62.17-.94.17-.32,0-.65-.08-.97-.22l-5.74-2.55-5.74-2.55-5.74-2.55-5.74-2.55-5.8,2.55-5.8,2.55-5.8,2.55-5.8,2.55c-.08.04-.16.07-.25.09-.08.03-.17.05-.25.07s-.17.03-.25.04c-.08,0-.17.01-.25.01Z"/>
      <path class="st4" d="M147.04,206.4c-.35,0-.67-.07-.97-.2s-.57-.31-.79-.54c-.23-.23-.41-.5-.54-.79s-.2-.63-.2-.97v-23c0-.35.07-.67.2-.97s.31-.57.54-.79c.23-.23.5-.41.79-.54s.63-.2.97-.2.67.07.97.2c.3.13.57.31.79.54.23.23.41.5.54.79.13.3.2.63.2.97v23c0,.35-.07.67-.2.97-.13.3-.31.57-.54.79-.23.23-.5.41-.79.54-.3.13-.63.2-.97.2Z"/>
    </g>
    <g>
      <path class="st4" d="M174.76,415.51c-4.66,0-8.63,0-11.99-.15-3.36-.15-6.12-.44-8.33-1.02s-3.89-1.45-5.1-2.76c-1.21-1.31-1.95-3.05-2.3-5.38-.19-1.27-.15-2.55.1-3.8.25-1.25.7-2.47,1.33-3.6.62-1.14,1.42-2.19,2.36-3.11.94-.92,2.02-1.7,3.2-2.31.84-5.92,1.47-11.97,1.92-17.89.45-5.92.74-11.7.9-17.08.16-5.38.2-10.34.16-14.62-.04-4.28-.15-7.88-.29-10.52-.02-.34.03-.68.15-.98.11-.31.28-.58.49-.82.21-.24.47-.43.77-.58.29-.14.62-.23.96-.25.34-.02.67.04.97.15.3.11.58.28.82.49.24.21.44.47.58.76.14.29.23.62.25.96.15,2.93.27,6.78.31,11.29.04,4.5-.01,9.66-.19,15.22-.18,5.55-.49,11.5-.99,17.58s-1.17,12.3-2.08,18.39c-.03.23-.1.45-.19.65-.09.21-.21.4-.35.57-.14.17-.31.33-.49.45-.18.13-.39.24-.6.31-.82.29-1.58.74-2.25,1.29-.67.56-1.26,1.22-1.73,1.95-.47.73-.82,1.52-1.03,2.32-.21.81-.26,1.63-.14,2.42.18,1.17.52,2.07,1.23,2.76.71.69,1.78,1.18,3.42,1.51,1.64.34,3.83.53,6.79.64,2.96.11,6.68.13,11.35.13,7.47,0,14.26-3.32,20.36-8.6,6.1-5.28,11.5-12.54,16.19-20.42,4.69-7.88,8.67-16.38,11.93-24.16,3.25-7.78,5.78-14.84,7.57-19.83.12-.33.29-.61.51-.85.22-.24.48-.43.77-.57s.6-.22.93-.24c.32-.02.66.03.98.14.32.12.61.29.85.51.24.22.43.48.57.77.14.29.22.6.24.93.02.32-.03.66-.14.98-1.87,5.22-4.51,12.6-7.95,20.73-3.44,8.13-7.66,17.02-12.7,25.26-5.04,8.24-10.89,15.82-17.56,21.34-6.68,5.52-14.18,8.99-22.54,8.99ZM156.29,395.13h0,0Z"/>
      <path class="st4" d="M248.45,407.15h-52.79c-.35,0-.67-.07-.97-.2-.3-.13-.57-.31-.79-.54s-.41-.5-.54-.79-.2-.63-.2-.97.07-.67.2-.97.31-.57.54-.79c.23-.23.5-.41.79-.54.3-.13.63-.2.97-.2h52.79c2.6,0,5.08-.26,7.46-.79,2.37-.52,4.63-1.31,6.77-2.35,2.14-1.04,4.17-2.34,6.07-3.9,1.9-1.56,3.69-3.37,5.34-5.44,3.05-3.81,5.57-8.37,7.52-13.52,1.95-5.14,3.35-10.87,4.16-17.01.81-6.14,1.04-12.7.67-19.5s-1.35-13.86-2.95-21c-.95-4.23-2.35-8.95-4.05-13.95-1.7-5-3.71-10.3-5.87-15.68-2.16-5.38-4.49-10.86-6.82-16.22-2.33-5.37-4.68-10.63-6.89-15.59-.99-2.22-1.94-4.36-2.86-6.42-.91-2.06-1.78-4.03-2.59-5.9-.81-1.87-1.58-3.65-2.27-5.32-.7-1.67-1.33-3.23-1.89-4.67-.12-.32-.18-.65-.17-.98,0-.32.08-.64.21-.93.13-.29.31-.56.55-.79.23-.23.51-.41.84-.54.32-.12.65-.18.98-.17.32,0,.64.08.93.21.29.13.56.31.79.55.23.23.41.51.54.84.55,1.41,1.18,2.95,1.86,4.6s1.44,3.41,2.25,5.26c.81,1.86,1.67,3.81,2.57,5.86.91,2.04,1.85,4.17,2.84,6.38,2.23,5.01,4.6,10.32,6.96,15.75,2.36,5.43,4.71,10.97,6.9,16.42s4.22,10.83,5.96,15.93c1.73,5.1,3.16,9.92,4.14,14.28,1.68,7.5,2.7,14.93,3.07,22.11.37,7.18.09,14.11-.8,20.61-.9,6.51-2.41,12.59-4.53,18.07-2.11,5.48-4.83,10.36-8.11,14.46-1.88,2.35-3.93,4.42-6.13,6.21-2.2,1.79-4.55,3.29-7.04,4.49-2.49,1.21-5.11,2.12-7.84,2.73-2.74.61-5.59.92-8.54.92Z"/>
    </g>
    <g>
      <path class="st4" d="M116.84,415.51c-8.35,0-15.86-3.47-22.53-8.99-6.68-5.52-12.53-13.11-17.56-21.34-5.04-8.24-9.27-17.12-12.7-25.26-3.44-8.13-6.08-15.51-7.95-20.73-.12-.33-.16-.66-.14-.98s.1-.64.24-.93c.14-.29.33-.55.57-.77.24-.22.52-.4.85-.51.33-.12.66-.16.98-.14.32.02.64.1.93.24.29.14.55.33.77.57.22.24.4.52.51.85,1.79,4.99,4.32,12.05,7.57,19.83,3.25,7.78,7.23,16.28,11.93,24.16,4.69,7.88,10.09,15.13,16.19,20.42,6.1,5.28,12.89,8.6,20.36,8.6,4.67,0,8.39-.02,11.35-.13,2.96-.11,5.16-.3,6.79-.64,1.64-.34,2.71-.82,3.42-1.51.71-.69,1.05-1.59,1.23-2.76.12-.79.06-1.61-.14-2.42-.21-.81-.56-1.59-1.03-2.32-.47-.73-1.06-1.39-1.73-1.95-.67-.56-1.44-1-2.25-1.29-.22-.08-.42-.18-.6-.31-.18-.13-.35-.28-.49-.45-.14-.17-.26-.36-.35-.57-.09-.21-.16-.42-.19-.65-.91-6.09-1.59-12.31-2.08-18.39-.49-6.08-.81-12.03-.99-17.58-.18-5.55-.23-10.71-.19-15.22s.16-8.35.31-11.29c.02-.34.1-.67.24-.96.14-.29.34-.55.57-.76.24-.21.51-.38.82-.49.31-.11.64-.16.99-.15.34.02.67.11.96.25.29.14.55.34.77.58.21.24.38.52.49.82.11.31.16.64.15.98-.14,2.64-.25,6.24-.29,10.52-.04,4.28,0,9.25.16,14.62s.45,11.16.9,17.08,1.08,11.98,1.92,17.89c1.19.6,2.27,1.39,3.2,2.31.94.92,1.74,1.97,2.36,3.11.63,1.14,1.08,2.35,1.33,3.61.25,1.25.29,2.53.1,3.8-.35,2.32-1.09,4.07-2.3,5.37s-2.89,2.18-5.1,2.76c-2.21.58-4.97.87-8.33,1.02-3.36.15-7.34.15-11.99.15Z"/>
      <path class="st4" d="M95.94,407.15h-52.79c-2.95,0-5.81-.31-8.54-.92-2.74-.61-5.36-1.53-7.84-2.73-2.49-1.21-4.84-2.71-7.04-4.49-2.2-1.79-4.25-3.86-6.13-6.21-3.28-4.1-5.99-8.98-8.11-14.46-2.11-5.48-3.63-11.56-4.53-18.07-.9-6.51-1.17-13.44-.8-20.61s1.38-14.61,3.07-22.11c.98-4.35,2.4-9.18,4.14-14.28,1.73-5.1,3.76-10.48,5.96-15.93,2.19-5.46,4.54-11,6.9-16.42,2.36-5.43,4.73-10.74,6.96-15.75.98-2.21,1.93-4.33,2.84-6.38.91-2.04,1.77-4,2.57-5.86.81-1.86,1.56-3.62,2.25-5.26.69-1.65,1.31-3.18,1.86-4.6.13-.32.31-.6.54-.84s.49-.42.79-.55c.29-.13.61-.2.93-.21.32,0,.66.04.98.17.32.13.6.31.84.54.23.23.42.49.55.79.13.29.2.61.21.93,0,.32-.04.66-.17.98-.56,1.44-1.2,3-1.89,4.67-.7,1.67-1.46,3.45-2.27,5.32-.81,1.87-1.68,3.85-2.59,5.9-.91,2.06-1.87,4.2-2.86,6.42-2.21,4.96-4.55,10.22-6.89,15.59-2.33,5.37-4.65,10.84-6.82,16.22-2.16,5.38-4.17,10.68-5.87,15.68s-3.1,9.72-4.05,13.95c-1.6,7.14-2.58,14.2-2.95,21-.37,6.81-.14,13.36.67,19.5.81,6.14,2.21,11.87,4.16,17.01,1.95,5.14,4.47,9.7,7.52,13.52,1.66,2.07,3.44,3.89,5.34,5.44,1.9,1.56,3.93,2.86,6.07,3.9,2.14,1.04,4.4,1.83,6.77,2.35,2.37.52,4.86.79,7.46.79h52.79c.35,0,.67.07.97.2.3.13.57.31.79.54.23.23.41.5.54.79s.2.63.2.97-.07.67-.2.97-.31.57-.54.79-.5.41-.79.54c-.3.13-.63.2-.97.2Z"/>
    </g>
    <path class="st4" d="M148.81,407.15h-6.25c-.35,0-.67-.07-.97-.2s-.57-.31-.79-.54-.41-.5-.54-.79-.2-.63-.2-.97.07-.67.2-.97.31-.57.54-.79c.23-.23.5-.41.79-.54s.63-.2.97-.2h6.25c.35,0,.67.07.97.2s.57.31.79.54c.23.23.41.5.54.79.13.3.2.63.2.97s-.07.67-.2.97c-.13.3-.31.57-.54.79-.23.23-.5.41-.79.54s-.63.2-.97.2Z"/>
    <g>
      <path class="st4" d="M236.89,331.3c-.07,0-.14,0-.22,0s-.14-.02-.22-.03c-.07-.01-.14-.03-.22-.05s-.14-.04-.21-.07c-.32-.12-.61-.3-.85-.52-.24-.22-.43-.49-.56-.78-.13-.29-.21-.61-.23-.93-.02-.32.03-.66.15-.98l.96-2.6.96-2.6.96-2.6.96-2.6c.12-.32.3-.61.52-.85.22-.24.49-.43.78-.56.29-.13.61-.21.93-.23.32-.02.66.03.98.15.32.12.61.3.85.52.24.22.43.49.56.78.13.29.21.61.23.93.02.32-.03.66-.15.98l-.96,2.6-.96,2.6-.96,2.6-.96,2.6c-.09.25-.22.48-.38.68-.16.2-.34.37-.55.52-.21.14-.43.25-.67.33-.24.07-.49.11-.74.11Z"/>
      <path class="st4" d="M55.03,330.69c-.26,0-.51-.04-.75-.12-.24-.08-.47-.19-.67-.33-.21-.14-.39-.32-.55-.52-.16-.2-.29-.43-.38-.69l-.69-1.91-.69-1.91-.69-1.91-.69-1.91c-.12-.32-.16-.66-.14-.98.02-.32.1-.64.23-.93s.33-.55.57-.77c.24-.22.52-.4.85-.51.32-.12.66-.16.98-.14.32.02.64.1.93.24.29.14.55.33.77.57.22.24.4.52.51.85l.69,1.91.69,1.91.69,1.91.69,1.91c.12.32.16.66.14.98-.02.32-.1.64-.23.93-.14.29-.33.55-.57.77s-.52.4-.85.51c-.07.03-.14.05-.21.07-.07.02-.14.03-.21.05s-.14.02-.21.03c-.07,0-.14,0-.21,0Z"/>
      <path class="st4" d="M270.84,344.4c-.32,0-.63-.06-.92-.18-.29-.11-.55-.28-.77-.48-.22-.21-.41-.45-.55-.73-.14-.28-.23-.58-.25-.91l-.03-.45-.03-.45-.03-.45-.03-.45c-.08-1.08-.18-2.34-.29-3.68-.11-1.34-.24-2.75-.38-4.12s-.3-2.72-.48-3.92c-.18-1.2-.38-2.26-.59-3.07-.09-.33-.11-.67-.06-.99.04-.32.15-.63.31-.91s.37-.52.63-.72c.26-.2.56-.35.89-.44.33-.09.67-.11.99-.06s.63.15.91.31c.28.16.52.37.72.63.2.26.35.56.44.89.25.92.47,2.06.66,3.33s.37,2.67.52,4.1c.15,1.43.29,2.9.41,4.31s.22,2.76.31,3.96l.03.44.03.44.03.44.03.44c.03.34-.02.68-.12.99-.1.31-.26.59-.47.83-.21.24-.46.45-.75.6-.29.15-.61.25-.95.27-.02,0-.03,0-.05,0-.02,0-.03,0-.05,0-.02,0-.03,0-.05,0-.02,0-.03,0-.05,0Z"/>
      <path class="st4" d="M278.45,326.09c-.29,0-.58-.05-.85-.15s-.52-.24-.73-.42c-.22-.18-.41-.4-.56-.64-.15-.25-.26-.52-.31-.82-.28-1.46-.55-2.78-.84-4.03-.28-1.25-.57-2.42-.88-3.57-.31-1.15-.64-2.28-1-3.45-.36-1.17-.74-2.37-1.17-3.67-.11-.33-.14-.66-.12-.99.03-.32.12-.64.26-.92.14-.29.34-.54.59-.76.24-.21.54-.38.86-.49.33-.11.66-.14.99-.12.32.03.64.12.92.26.29.14.54.34.76.59.21.24.38.54.49.86.44,1.35.84,2.6,1.22,3.81.37,1.21.71,2.39,1.04,3.59.32,1.2.63,2.42.92,3.72s.58,2.69.87,4.21c.06.34.06.68-.01.99-.07.32-.2.62-.38.88-.18.26-.41.49-.68.67-.27.18-.58.31-.92.38-.04,0-.08.01-.12.02-.04,0-.08.01-.12.01-.04,0-.08,0-.12,0-.04,0-.08,0-.12,0Z"/>
      <path class="st4" d="M280.9,357.35s-.02,0-.03,0c-.01,0-.02,0-.03,0s-.02,0-.03,0c-.01,0-.02,0-.03,0-.34-.02-.67-.11-.96-.25-.29-.14-.55-.34-.76-.58-.21-.24-.38-.52-.49-.82-.11-.31-.16-.64-.14-.98.07-1.29.12-2.53.14-3.74.02-1.22.02-2.41-.01-3.63-.03-1.21-.08-2.45-.16-3.73-.08-1.29-.19-2.63-.32-4.07-.03-.34,0-.68.11-.99.1-.31.26-.59.46-.84.2-.25.46-.45.74-.61s.61-.25.95-.29c.34-.03.68.01.99.11.31.1.59.26.84.46.25.2.45.45.61.74s.25.6.29.95c.14,1.48.25,2.89.33,4.24.08,1.35.14,2.65.17,3.93s.03,2.55.01,3.82c-.02,1.28-.07,2.57-.14,3.91-.02.33-.1.65-.23.93-.13.28-.32.54-.54.75-.22.21-.49.38-.78.5s-.61.18-.94.18Z"/>
      <path class="st4" d="M256.25,199.71c0-.43.07-.84.2-1.22s.31-.71.54-.99c.23-.28.5-.51.79-.67.3-.16.63-.25.97-.25s.67.09.97.25c.3.16.57.39.79.67s.41.62.54.99c.13.37.2.78.2,1.22s-.07.84-.2,1.22c-.13.37-.31.71-.54.99-.23.28-.5.51-.79.67-.3.16-.63.25-.97.25s-.67-.09-.97-.25c-.3-.16-.57-.39-.79-.67-.23-.28-.41-.62-.54-.99s-.2-.78-.2-1.22Z"/>
      <path class="st4" d="M260.19,178.57c0-.43.07-.84.2-1.22.13-.37.31-.71.54-.99.23-.28.5-.51.79-.67.3-.16.63-.25.97-.25s.67.09.97.25c.3.16.57.39.79.67.23.28.41.62.54.99.13.37.2.78.2,1.22s-.07.84-.2,1.22c-.13.37-.31.71-.54.99-.23.28-.5.51-.79.67-.3.16-.63.25-.97.25s-.67-.09-.97-.25c-.3-.16-.57-.39-.79-.67-.23-.28-.41-.62-.54-.99-.13-.37-.2-.78-.2-1.22Z"/>
      <path class="st4" d="M265.94,191.82c0-.43.07-.84.2-1.22.13-.37.31-.71.54-.99.23-.28.5-.51.79-.67.3-.16.63-.25.97-.25s.67.09.97.25c.3.16.57.39.79.67.23.28.41.62.54.99.13.37.2.78.2,1.22s-.07.84-.2,1.22c-.13.37-.31.71-.54.99-.23.28-.5.51-.79.67-.3.16-.63.25-.97.25s-.67-.09-.97-.25c-.3-.16-.57-.39-.79-.67-.23-.28-.41-.62-.54-.99-.13-.37-.2-.78-.2-1.22Z"/>
    </g>
  </g>
</svg>