<svg width="320" height="360" viewBox="0 0 320 360" xmlns="http://www.w3.org/2000/svg">
  <!-- shadow -->
  <ellipse cx="160" cy="336" rx="68" ry="12" fill="#000000" opacity="0.12"/>

  <!-- ears -->
  <ellipse cx="126" cy="70" rx="24" ry="72" fill="#ffffff" stroke="#e7c9d6" stroke-width="4" transform="rotate(-12 126 70)"/>
  <ellipse cx="196" cy="70" rx="24" ry="72" fill="#ffffff" stroke="#e7c9d6" stroke-width="4" transform="rotate(12 196 70)"/>
  <ellipse cx="126" cy="76" rx="12" ry="52" fill="#ffc9d9" transform="rotate(-12 126 76)"/>
  <ellipse cx="196" cy="76" rx="12" ry="52" fill="#ffc9d9" transform="rotate(12 196 76)"/>

  <!-- legs -->
  <ellipse cx="118" cy="300" rx="24" ry="26" fill="#f3f0ec"/>
  <ellipse cx="204" cy="300" rx="24" ry="26" fill="#f3f0ec"/>

  <!-- body -->
  <ellipse cx="161" cy="248" rx="96" ry="80" fill="#ffffff"/>
  <ellipse cx="161" cy="264" rx="60" ry="46" fill="#fbeff2"/>

  <!-- head -->
  <circle cx="161" cy="168" r="78" fill="#ffffff"/>

  <!-- eyes -->
  <circle cx="134" cy="164" r="9" fill="#241f18"/>
  <circle cx="190" cy="164" r="9" fill="#241f18"/>
  <circle cx="137" cy="161" r="3" fill="#ffffff"/>
  <circle cx="193" cy="161" r="3" fill="#ffffff"/>

  <!-- nose -->
  <ellipse cx="161" cy="184" rx="9" ry="6" fill="#ff9db0"/>

  <!-- whiskers -->
  <path d="M115 186 L70 178 M115 194 L70 198 M207 186 L252 178 M207 194 L252 198" stroke="#d8bfc8" stroke-width="3" stroke-linecap="round"/>

  <!-- blush -->
  <ellipse cx="120" cy="192" rx="14" ry="8" fill="#ffb3c6" opacity="0.6"/>
  <ellipse cx="202" cy="192" rx="14" ry="8" fill="#ffb3c6" opacity="0.6"/>
</svg>
