<svg width="2260" height="1605" viewBox="0 0 2260 1605" fill="none" xmlns="http://www.w3.org/2000/svg">
<path d="M157.231 847.274C157.231 1202.4 367.242 1444.36 787.227 1444.36L783.143 1450.49C781.64 1456.24 780.863 1462.11 780.863 1468.09C780.863 1536.16 881.649 1591.34 1005.98 1591.34C1130.3 1591.34 1318.59 1536.16 1318.59 1468.09C1346.16 1490.8 1428.68 1533.77 1538.13 1523.97C1647.58 1514.17 1713.13 1482.64 1732.22 1468.09C1784.19 1497.95 1900.86 1544.18 1951.76 1490.29C2002.67 1436.4 1936.92 1343.32 1897.67 1303.51C1931.61 1242.27 1982.95 1089.78 1916.76 969.754C1850.58 849.724 1740.7 819.716 1694.04 819.716L1687.67 749.291C1627.22 369.604 1350.39 192.009 930.408 192.009C510.423 192.009 157.231 492.146 157.231 847.274Z" fill="#FA9CD8"/>
<path d="M1181.77 1324.94C1494.7 1284.79 1695.97 1155.99 1696.67 822.778H1700.4C1747.07 822.778 1856.95 852.786 1923.13 972.815C1989.31 1092.85 1937.98 1245.33 1904.04 1306.57C1943.28 1346.38 2009.04 1439.46 1958.13 1493.35C1907.22 1547.24 1790.55 1501.01 1738.58 1471.15C1719.49 1485.7 1653.95 1517.24 1544.49 1527.03C1435.04 1536.83 1352.53 1493.86 1324.95 1471.15C1324.95 1539.22 1136.66 1594.4 1012.34 1594.4C888.013 1594.4 787.227 1539.22 787.227 1471.15C787.227 1403.09 888.013 1347.91 1012.34 1347.91L1181.77 1324.94Z" fill="#FE87D2"/>
<path d="M456.87 1495.55C512.106 1487.89 584.72 1460.23 620.812 1429.51L619.221 1426.97C532.494 1409.63 458.252 1379.09 396.496 1337.19L394.109 1338.67C325.254 1352.82 296.728 1396.72 302.798 1437.26C309.251 1480.36 378.231 1506.46 456.87 1495.55Z" fill="#FE87D2"/>
<path d="M1923.13 977.409C1959.48 1043.34 1960.38 1119.07 1948.17 1184.09L1950.17 1185.62C2002.14 1191.75 2118.81 1167.45 2195.17 1078.65C2260.59 1002.58 2252.44 891.873 2249.26 852.067C2248.73 858.191 2166.53 904.121 2109.26 904.121C2016.69 904.121 1994.72 853.638 1942.22 833.695C1889.72 813.752 1835.63 833.695 1818.13 871.97L1822.9 868.303C1858.73 891.401 1894.9 926.218 1923.13 977.409Z" fill="#ED43AF"/>
<path d="M469.354 344.148C330.928 436.621 232.989 566.344 192.537 714.649C171.325 712.607 121.265 707.3 90.7197 702.401C52.5381 696.277 42.9927 656.471 49.3563 631.975C59.6971 592.169 94.9622 598.803 106.629 593.7C36.6293 573.797 1.6296 511.026 23.9021 460.503C45.9692 410.447 108.641 400.968 145.382 426.111L123.822 411.068C57.0263 351.284 32.4127 266.807 73.2201 224.731C103.243 193.774 177.421 206.359 186.536 224.731L180.915 210.381C158.233 144.705 183.638 96.2226 210.037 79.286C243.446 57.8521 320.141 47.1361 367.536 146.65C395.536 205.44 444.43 296.177 469.354 344.148Z" fill="#ED43AF"/>
<path d="M1695.63 753.906C1660.83 535.377 1554.36 383.792 1390.18 294.482C1411.92 255.952 1429.95 211.781 1458.59 149.929C1508.91 41.2283 1628.02 -16.1839 1678.92 18.2634C1729.83 52.7108 1739.38 132.323 1721.08 192.797C1715.92 209.851 1699.81 237.362 1678.92 268.477L1670.17 284.656C1768.81 192.796 1880.63 164.473 1926.31 221.885C1965.29 270.877 1926.31 384.936 1837.22 439.286L1838.81 438.521C1859.49 430.866 1934.43 393.412 1963.7 445.41C1994.72 500.526 1911.34 581.452 1872.22 609.992C1852.91 624.082 1831.52 638.641 1808.58 652.428L1813.36 653.626C1861.08 655.157 1875.4 683.48 1884.95 701.086C1894.49 718.693 1906.42 789.119 1827.67 803.663C1764.67 815.299 1719.76 813.104 1705.17 810.552C1705 790.856 1697.2 775.029 1695.63 753.906Z" fill="#ED43AF"/>
<path d="M793.59 1452.52C793.59 1450.14 793.59 1447.77 793.59 1445.39C726.456 1444.57 660.121 1437.81 595.153 1422.2C332.065 1373.89 160.036 1111.29 173.092 851.867C173.094 845.279 173.219 838.709 173.464 832.161C189.934 457.087 578.964 199.847 936.771 205.312C1276.92 184.552 1655.31 391.318 1687.61 754.907L1687.55 754.366C1718.69 975.596 1603.4 1221.24 1376.62 1279.49C1313.37 1301.02 1247.78 1314.09 1181.32 1322.94C1181.62 1325.3 1181.92 1327.65 1182.22 1330.01C1249.08 1321.64 1315.23 1309.01 1379.39 1287.69C1609.66 1231.46 1731.77 976.895 1700.53 753.402L1700.47 752.86C1670.95 382.94 1279.94 166.507 936.771 187.892C572.147 181.477 172.405 442.145 154.478 831.449C154.223 838.234 154.096 845.041 154.097 851.867C139.572 1116.63 323.992 1390.61 592.589 1433.31C658.869 1447.92 726.017 1453.27 793.59 1452.52Z" fill="#B1090C"/>
<path d="M1012.34 1352.81C1012.34 1350.56 1012.34 1348.31 1012.34 1346.06C989.653 1345.32 966.857 1346.45 944.311 1349.69C877.92 1360.92 787.669 1386.73 778.391 1472.68C778.137 1494.61 788.103 1515.28 801.588 1530.82C856.971 1589.38 937.976 1603.69 1012.34 1604.66C1072.5 1604.09 1131.81 1593.8 1189.17 1576.85C1217.82 1568.16 1246 1557.7 1272.66 1543.06C1297.71 1528.07 1329.7 1510.04 1332.13 1472.68L1320.39 1478.22C1385.63 1525.53 1467.23 1541.16 1544.98 1533.96C1590.62 1529.42 1635.92 1520.72 1679.27 1505.43C1700.56 1497.66 1721.75 1489.1 1740.63 1475.37C1739.27 1473.58 1737.9 1471.79 1736.54 1470C1718.84 1482.32 1697.54 1490.57 1676.6 1497.67C1633.79 1511.79 1589.03 1519.5 1544.01 1523.17C1468.81 1529.08 1388.94 1511.56 1329.51 1467.15L1317.7 1457.52L1317.78 1472.68C1307.63 1523.38 1236.57 1544.34 1184.56 1561.27C1128.61 1577.3 1070.16 1586.96 1012.34 1587.2C941.226 1586.39 862.939 1570.3 815.257 1519.11C803.705 1505.73 796.076 1489.5 796.062 1472.68C800.009 1406.72 881.513 1373.58 946.129 1360.33C967.829 1356.02 990.015 1353.57 1012.34 1352.81Z" fill="#B1090C"/>
<path d="M1700.4 820.934C1700.4 823.184 1700.4 825.434 1700.4 827.684C1717.76 828.053 1735.29 831.761 1752.1 836.952C1823.44 859.134 1882.65 912.137 1917.34 977.536C1970.81 1078.84 1947.53 1205.04 1896.41 1303.87L1893.24 1309.55L1897.82 1314.23C1935.83 1355.24 1975.66 1410.14 1965.74 1463.14C1963.34 1472.74 1958.53 1481.43 1951.65 1488.77C1912.23 1527.84 1842.72 1509.88 1788.99 1491.04C1772.39 1484.93 1755.97 1477.88 1740.26 1469.76C1739.14 1471.71 1738.02 1473.66 1736.9 1475.61C1752.2 1485.23 1768.36 1493.65 1784.93 1501.05C1838.54 1522.88 1910.22 1550.13 1964.6 1501C1973.48 1491.78 1980.09 1480.05 1983.19 1467.54C1994.31 1399.09 1950.21 1346.01 1910.25 1301.98L1911.67 1312.33C1964.45 1208.45 1987.32 1078.06 1928.91 971.156C1891.63 903.798 1828.62 850.001 1754.44 829.092C1736.9 824.184 1718.8 820.82 1700.4 820.934Z" fill="#B1090C"/>
<path d="M404.237 1344.57C403.959 1342.71 403.682 1340.86 403.404 1339C394.589 1339.6 385.786 1340.76 377.079 1342.63C342.911 1349.67 306.387 1370.6 294.429 1407.92C290.762 1419.37 289.759 1431.75 291.59 1443.71C298.316 1480.2 333.716 1496.09 362.487 1503.74C392.692 1511.36 423.889 1511.53 453.966 1507.04C505.258 1498.47 554.267 1480.5 597.836 1452.96C605.141 1448.16 612.292 1442.92 618.842 1437.07C617.614 1435.65 616.387 1434.22 615.159 1432.79C608.616 1438.08 601.466 1442.83 594.162 1447.16C550.668 1472.03 501.544 1488.02 452.152 1494.92C398.195 1501.4 320.913 1493.71 306.382 1441.66C304.936 1431.92 305.763 1421.93 308.752 1412.58C318.254 1382.42 347.829 1361.84 379.559 1351.3C387.567 1348.58 395.822 1346.36 404.237 1344.57Z" fill="#B1090C"/>
<path d="M789.898 1126.91C788.117 1128.29 786.336 1129.66 784.555 1131.04C786.957 1135.36 789.802 1139.4 792.873 1143.22C805.221 1158.23 822.219 1171.5 844.147 1174.32C846.425 1174.58 848.731 1174.72 851.057 1174.72C882.627 1173.4 905.833 1154.91 924.539 1134.28L910.772 1131.56C919.652 1155.06 942.855 1173.23 968.079 1171.84C984.44 1171.34 1000.99 1165.5 1012.98 1154.3C1016.66 1150.85 1019.97 1147.06 1022.43 1142.33C1020.48 1141.22 1018.52 1140.11 1016.56 1139.01C1014.34 1142.34 1011.11 1145.44 1007.69 1148.04C996.392 1156.61 982.082 1160.25 968.079 1159.61C948.496 1159.28 931.956 1143.87 926.095 1126.39L921.279 1112.97L912.328 1123.67C895.817 1140.85 872.843 1156.43 851.057 1156.73C849.449 1156.72 847.834 1156.62 846.211 1156.44C830.72 1154.59 814.861 1146.01 800.381 1135.45C796.78 1132.8 793.193 1129.94 789.898 1126.91Z" fill="#B1090C"/>
<path d="M758.591 984.298C758.591 1053.21 696.979 1109.07 620.978 1109.07C544.976 1109.07 483.365 1053.21 483.365 984.298C483.365 915.386 531.454 865.646 607.455 865.646C683.457 865.646 758.591 915.386 758.591 984.298Z" fill="black"/>
<ellipse cx="667.909" cy="945.257" rx="33.4084" ry="32.1504" fill="#D9D9D9"/>
<path d="M443.835 879.139C442.224 880.087 440.614 881.034 439.003 881.982C439.63 883.185 440.314 884.415 441.007 885.607C453.863 906.207 470.934 927.631 499.439 932.791C501.003 933.007 502.575 933.147 504.174 933.205C504.068 928.211 503.962 923.217 503.857 918.222C502.775 918.314 501.69 918.35 500.586 918.332C480.199 917.673 460.118 900.515 446.095 882.293C445.316 881.253 444.546 880.179 443.835 879.139Z" fill="black"/>
<path d="M475.618 844.532C473.843 845.148 472.067 845.765 470.292 846.382C470.654 847.682 471.067 849.019 471.496 850.321C479.776 872.997 492.02 897.292 518.852 907.869C520.337 908.383 521.848 908.825 523.4 909.192C524.342 904.279 525.284 899.365 526.226 894.451C525.148 894.331 524.077 894.156 523 893.924C503.172 889.329 487.093 868.631 477.171 848.06C476.626 846.891 476.097 845.689 475.618 844.532Z" fill="black"/>
<path d="M1035.41 981.522C1035.41 1050.43 1097.02 1106.3 1173.02 1106.3C1249.02 1106.3 1310.63 1050.43 1310.63 981.522C1310.63 912.61 1262.54 862.87 1186.54 862.87C1110.54 862.87 1035.41 912.61 1035.41 981.522Z" fill="black"/>
<ellipse cx="33.4084" cy="32.1504" rx="33.4084" ry="32.1504" transform="matrix(-1 0 0 1 1159.5 910.331)" fill="#D9D9D9"/>
<path d="M1350.16 876.363C1351.77 877.311 1353.38 878.259 1354.99 879.207C1354.37 880.409 1353.68 881.639 1352.99 882.831C1340.13 903.432 1323.06 924.855 1294.56 930.016C1292.99 930.231 1291.42 930.371 1289.82 930.43C1289.93 925.435 1290.03 920.441 1290.14 915.447C1291.22 915.538 1292.31 915.575 1293.41 915.556C1313.8 914.898 1333.88 897.74 1347.9 879.517C1348.68 878.478 1349.45 877.404 1350.16 876.363Z" fill="black"/>
<path d="M1318.38 841.756C1320.15 842.373 1321.93 842.99 1323.71 843.606C1323.34 844.906 1322.93 846.244 1322.5 847.546C1314.22 870.221 1301.98 894.516 1275.15 905.094C1273.66 905.608 1272.15 906.049 1270.6 906.417C1269.65 901.503 1268.71 896.589 1267.77 891.675C1268.85 891.555 1269.92 891.38 1271 891.148C1290.83 886.553 1306.9 865.855 1316.83 845.284C1317.37 844.115 1317.9 842.913 1318.38 841.756Z" fill="black"/>
<path d="M456.673 345.046C458.559 344.066 460.445 343.086 462.33 342.107C456.363 329.092 450.301 316.231 444.131 303.308C419.555 251.75 393.732 200.825 368.876 149.751C367.72 147.361 366.496 144.812 365.358 142.424C342.258 80.5332 259.693 29.318 195.885 72.0111C145.528 108.712 147.64 178.665 170.457 226.886C177.178 241.856 185.579 255.913 195.002 269.116C231.654 320.298 270.375 369.792 310.24 418.389C319.301 429.401 328.492 440.447 337.729 451.247C339.366 449.892 341.003 448.537 342.64 447.182C333.81 436.133 324.991 424.822 316.297 413.563C278.041 363.878 240.705 313.496 205.369 261.875C196.618 249.049 188.934 235.551 182.912 221.432C161.955 175.821 164.225 113.37 204.486 85.4178C258.614 50.7808 327.029 91.4641 350.011 149.733C351.164 152.155 352.403 154.735 353.572 157.152C378.677 208.733 406.518 258.61 435.108 308.064C442.278 320.456 449.463 332.712 456.673 345.046Z" fill="#B1090C"/>
<path d="M268.156 534.348C269.509 532.709 270.861 531.07 272.213 529.43C265.818 523.245 259.248 517.142 252.627 511.13C226.158 487.124 198.612 464.436 170.111 442.994C159.56 435.06 149.024 427.241 138.375 419.446C80.2506 377.143 20.0421 290.713 67.6382 228.301C87.8986 207.994 124.189 206.673 153.377 214.106C161.331 216.397 170.304 219.863 173.829 225.577C175.733 224.632 177.636 223.687 179.54 222.743C173.68 212.822 164.259 209.948 155.657 206.706C124.453 197.609 86.9241 195.295 59.0977 220.018C0.335747 295.438 67.6104 387.358 128.36 433.055C138.92 440.869 149.388 448.681 159.894 456.581C188.271 477.93 217.071 498.722 246.264 519.102C253.564 524.206 260.912 529.298 268.156 534.348Z" fill="#B1090C"/>
<path d="M218.384 631.402C218.979 629.362 219.573 627.322 220.168 625.282C213.194 622.511 206.163 619.809 199.112 617.178C170.952 606.67 142.448 597.306 113.619 589.086C108.774 587.705 103.951 586.335 99.0987 584.963C45.8367 572.03 -2.16623 515.638 20.2404 462.661C33.9052 427.213 77.9742 408.743 115.311 419.944C122.153 421.941 128.747 424.901 134.702 428.848C135.934 427.116 137.165 425.385 138.397 423.653C132.145 418.914 125.101 415.219 117.71 412.581C77.822 397.811 25.9142 415.545 7.86007 457.204C-21.1944 520.475 35.3811 587.176 94.4552 601.294C99.2992 602.679 104.117 604.055 108.958 605.435C137.764 613.648 166.872 620.827 196.277 626.976C203.638 628.516 211.021 629.993 218.384 631.402Z" fill="#B1090C"/>
<path d="M182.38 717.25C182.584 715.135 182.787 713.02 182.991 710.905C178.647 709.775 174.216 708.689 169.831 707.668C152.22 703.57 134.592 700.464 116.857 698.254C105.253 696.799 93.6336 695.313 82.1884 693.597C55.3065 691.084 39.9336 659.783 45.6866 633.01C48.939 614.167 63.9583 602.231 84.1696 599.603C88.5493 598.673 93.0041 598.292 98.0544 596.049C97.2028 594.103 96.3512 592.156 95.4996 590.209C92.2307 591.304 87.5323 591.492 83.0785 591.935C62.5621 591.609 37.8814 607.184 33.3226 629.798C23.5682 661.558 41.7538 705.296 79.5475 710.062C91.3048 712.046 103.028 713.652 114.749 715.123C132.653 717.354 150.64 718.219 168.787 717.814C173.305 717.71 177.88 717.529 182.38 717.25Z" fill="#B1090C"/>
<path d="M1379.12 300.49C1381.19 301.657 1383.26 302.824 1385.33 303.991C1393.71 290.731 1401.62 277.138 1409.23 263.452C1429.2 227.458 1447.44 190.651 1465.21 153.709C1474.18 135.033 1485.35 117.467 1498.3 101.327C1539.97 50.1075 1614.03 -2.16424 1672.33 25.6399C1721.23 59.5434 1728.57 133.173 1712.32 190.604C1681.5 262.987 1627.03 329.199 1578.42 394.807C1568.97 407.133 1559.3 419.556 1549.7 431.641C1551.53 433.151 1553.37 434.661 1555.2 436.17C1565.25 424.376 1575.34 412.239 1585.21 400.181C1636.34 335.107 1691.23 273.781 1726.67 194.945C1744.81 133.422 1741.04 53.9787 1682.34 10.8425C1601.62 -25.2107 1529.82 35.7692 1483.49 89.4347C1469.6 106.737 1457.85 125.797 1448.78 146.104C1432.07 183.5 1415.91 221.107 1399.05 258.318C1392.62 272.47 1386.05 286.594 1379.12 300.49Z" fill="#B1090C"/>
<path d="M1642.77 557.231C1644.07 559.219 1645.37 561.206 1646.67 563.194C1657.61 556.512 1668.77 549.729 1679.75 543.061C1733.12 510.7 1786.48 478.288 1840.04 446.493C1888.16 417.704 1925.36 371.401 1942.1 317.297C1951.33 285.573 1955.3 246.749 1931.86 216.179C1900.5 177.073 1845.85 179.515 1806.05 192.286C1764.55 205.362 1727.76 228.647 1695.1 255.704C1685.08 264.052 1675.43 272.847 1666.16 282.027C1667.77 283.765 1669.39 285.503 1671.01 287.241C1680.69 278.768 1690.66 270.694 1700.9 263.074C1763.25 217.14 1862.87 167.864 1917.57 227.548C1934.48 249.542 1932.55 283.118 1923.91 311.828C1908.81 360.813 1874.91 404.442 1831.22 432.035C1778.28 465.318 1726.22 499.889 1674.66 535.179C1664.06 542.453 1653.3 549.874 1642.77 557.231Z" fill="#B1090C"/>
<path d="M1689.78 703.027C1690.5 705.291 1691.22 707.555 1691.93 709.819C1700.9 707.805 1709.8 705.416 1718.6 702.694C1753.83 691.785 1787.37 675.678 1818.68 656.419C1838.42 644.266 1857.53 631.213 1876.13 617.509C1903.88 596.526 1928.39 572.173 1948.69 543.801C1967.55 516.49 1988.15 477.825 1968.11 442.006C1945.32 401.191 1893.13 411.335 1861.12 424.514C1852.53 427.814 1844.06 431.761 1835.98 435.158C1836.81 437.385 1837.63 439.613 1838.46 441.84C1847.2 438.75 1855.5 435.424 1864.04 432.663C1897.01 421.159 1940.91 416.854 1956.1 448.77C1978.08 507.178 1912.6 564.479 1865.13 602.431C1846.74 615.706 1827.97 628.385 1808.72 640.238C1778.16 659.025 1747.05 676.744 1714.5 692.06C1706.36 695.884 1698.12 699.551 1689.78 703.027Z" fill="#B1090C"/>
<path d="M1704.2 807.021C1703.79 809.36 1703.38 811.7 1702.97 814.039C1708.9 815.84 1714.86 816.975 1720.81 817.914C1744.71 821.519 1768.83 821.25 1792.56 818.396C1804.37 816.958 1816.09 815.11 1827.79 812.88C1851.65 808.615 1877.67 795.941 1889.81 771.833C1901.56 747.991 1900.86 721.468 1889.47 697.75C1878.66 675.714 1856.16 654.26 1830.14 651.341C1824.04 650.344 1817.92 649.973 1811.88 650.043C1811.8 652.416 1811.73 654.79 1811.65 657.164C1817.34 657.61 1822.97 658.455 1828.4 659.82C1851.77 665.05 1867.47 682.314 1877.24 704.378C1884.76 722.259 1884.42 746.719 1874.7 763.707C1865.06 781.214 1845.47 790.782 1824.38 794.401C1813.02 796.428 1801.66 798.147 1790.26 799.536C1767.35 802.288 1744.47 805.022 1721.37 806.527C1715.63 806.871 1709.77 807.159 1704.2 807.021Z" fill="#B1090C"/>
<path d="M1815.23 867.583C1817.16 868.466 1819.09 869.35 1821.03 870.233C1827.79 855.93 1840.05 844.669 1854.18 837.538C1880.72 824.119 1912.99 824.405 1940.44 835.327C1968.18 845.986 1989.93 868.612 2017.59 884.49C2045.07 900.854 2077.7 907.858 2109.26 907.885C2136.15 907.777 2161.37 900.354 2185.53 891.48C2197.62 886.943 2209.43 881.825 2221.02 876.097C2226.81 873.229 2232.54 870.209 2238.2 866.927C2241.05 865.267 2243.83 863.576 2246.69 861.658C2248.05 860.743 2249.5 859.738 2251.03 858.529C2251.41 858.228 2251.77 857.929 2252.12 857.63C2252.56 857.256 2252.99 856.869 2253.4 856.471C2253.76 856.125 2254.35 855.532 2254.9 854.826C2255.27 854.199 2256.57 853.217 2257.05 849.679L2241.47 849.628C2248.01 927.138 2239.28 1011.19 2188.73 1070.05C2182.86 1076.88 2176.71 1083.35 2170.21 1089.58C2123.63 1134.02 2062.99 1163.83 1999.01 1175.86C1982.97 1178.7 1966.58 1180.47 1950.55 1179.4C1950.3 1181.51 1950.05 1183.62 1949.8 1185.73C1966.61 1188.31 1983.66 1187.76 2000.47 1185.95C2067.39 1178.09 2132.5 1149.06 2181.97 1101.86C2188.86 1095.25 2195.38 1088.38 2201.61 1081.13C2256.81 1016.4 2264.44 927.389 2257.06 848.382C2256.31 839.104 2242.27 839.057 2241.47 848.33C2210.34 865.173 2155.57 893.407 2109.26 894.233C2079.24 894.63 2049.49 888.772 2023.51 874.037C1997.36 859.901 1974.61 837.076 1944 825.939C1913.96 814.796 1879.07 815.324 1850.58 830.681C1835.41 838.844 1822.25 851.578 1815.23 867.583Z" fill="#B1090C"/>
<path d="M1960.46 1031.92C1959.97 1034.5 1959.47 1037.08 1958.97 1039.65C1962.56 1040.79 1966.21 1041.82 1969.89 1042.75C2002.96 1051.05 2038.73 1050.84 2072.19 1041.08C2105.63 1031.45 2136.42 1011.54 2157.86 984.745C2160.27 981.76 2162.51 978.76 2164.71 975.629C2162.74 973.887 2160.78 972.145 2158.82 970.403C2156.07 972.842 2153.33 975.146 2150.5 977.435C2125.22 997.882 2096.6 1012.1 2066.31 1020.92C2035.99 1029.73 2003.99 1033.52 1971.36 1032.48C1967.73 1032.36 1964.08 1032.17 1960.46 1031.92Z" fill="#B1090C"/>
</svg>
